<svg width="70" height="19" viewBox="0 0 70 19" fill="none" xmlns="http://www.w3.org/2000/svg">
<path d="M22.4118 7.22271C22.4118 5.89805 21.2045 4.50881 19.1061 4.50881C16.7528 4.50881 14.1691 6.33271 13.7735 9.97303C13.3692 13.6489 15.5329 15.2824 17.7139 15.2824C19.8949 15.2824 21.037 14.3841 22.2049 13.1862C21.2006 11.8533 19.9036 12.4692 19.6551 12.6049C19.2436 12.8463 18.7777 12.9656 18.307 12.9502C17.4654 12.9502 16.6065 12.5512 16.6065 10.8903C21.9989 10.3274 22.411 8.53908 22.411 7.22271H22.4118ZM19.7392 7.44045C19.7046 7.84861 19.5504 8.54737 16.8197 8.93897C17.3938 6.77812 18.4949 6.61585 19.0007 6.61585C19.1032 6.61093 19.2055 6.62927 19.3007 6.66966C19.3958 6.71005 19.4816 6.77153 19.5522 6.84991C19.6227 6.9283 19.6764 7.02175 19.7097 7.12394C19.7429 7.22612 19.7549 7.33463 19.7447 7.44211L19.7392 7.44045ZM10.6062 7.7948L9.35247 11.9608L8.46764 4.72738C6.49348 4.72738 5.43169 6.21597 4.87798 7.78568L3.34899 11.97L3.13427 7.8304C3.01786 5.90633 1.34888 4.73566 0 4.73566L1.63124 15.2004C3.69978 15.1922 4.81663 13.7119 5.40101 12.1422L6.69404 8.58462C6.70584 8.72951 7.58753 15.2013 7.58753 15.2013C9.66551 15.2013 10.7824 13.8128 11.3809 12.2969L14.291 4.73648C12.2421 4.73648 11.1622 6.21597 10.6046 7.7948H10.6062ZM30.0379 4.48315C28.7582 4.48315 27.7806 5.21834 26.9547 6.29793V6.28965L27.6925 0C25.992 0 24.6093 1.56144 24.3435 3.88457L23.0646 15.1194C24.0438 15.1194 25.0828 14.8197 25.6412 14.0572C26.1399 14.7377 26.8863 15.2824 27.9945 15.2824C30.8621 15.2824 32.8292 11.7614 32.8292 8.45713C32.8119 5.44353 31.4292 4.49142 30.0465 4.49142L30.0379 4.48315ZM29.7705 9.88362C29.4716 11.7257 28.4994 12.9783 27.5643 12.9783C26.6291 12.9783 26.2162 12.5338 26.2162 12.5338C26.3971 10.9194 26.5088 9.92916 26.8517 9.07558C27.1946 8.222 28.011 6.86091 28.8612 6.86091C29.6949 6.86091 30.0725 8.03158 29.7712 9.88279L29.7705 9.88362ZM39.981 4.72821H37.9801L37.988 4.61893C38.1256 3.23962 38.4347 2.51355 39.454 2.39515C40.1501 2.32229 40.4592 1.94145 40.5363 1.52419L40.7856 0.0629215C36.7744 0.0356004 35.5049 1.86777 35.1817 4.66446L35.1738 4.72821H35.1306C34.4778 4.72821 33.7573 5.50893 33.6362 6.49828L33.5929 6.86091H34.9331L33.8084 16.68L33.4639 18.4409C33.5072 18.4409 33.5583 18.4492 33.6008 18.4492C35.4806 18.3763 36.6839 16.8066 36.9498 14.5282L37.8275 6.85925H38.4567C39.0749 6.85925 39.797 6.2052 39.9228 5.1165L39.981 4.72821ZM50.3882 4.54606C48.0782 4.54606 45.8972 6.34264 45.2287 9.16582C44.5601 11.9891 45.5731 15.328 48.9725 15.328C52.3718 15.328 54.3184 11.8507 54.3184 8.95636C54.3216 6.07936 52.4764 4.54524 50.389 4.54524L50.3882 4.54606ZM51.3242 9.79172C51.2046 11.0717 50.6713 13.014 49.2116 13.014C47.7518 13.014 47.9492 10.7455 48.0908 9.66505C48.2457 8.5126 48.8553 6.87002 50.1688 6.87002C51.3501 6.87002 51.461 8.34949 51.3249 9.79255L51.3242 9.79172ZM65.7331 7.78568L64.4794 11.9518C64.4456 11.6247 63.5954 4.71827 63.5954 4.71827C61.6212 4.71827 60.5642 6.20686 60.0105 7.77658L58.4815 11.9608C58.4736 11.6612 58.2667 7.82128 58.2667 7.82128C58.1425 5.89722 56.4751 4.72655 55.1207 4.72655L56.7433 15.1914C58.8118 15.1831 59.9287 13.7027 60.513 12.1331L61.8013 8.57552C61.8092 8.7204 62.6948 15.1922 62.6948 15.1922C64.7728 15.1922 65.8849 13.8038 66.4882 12.2879L69.4007 4.72738C67.3573 4.72738 66.2751 6.20686 65.7253 7.78568H65.7331ZM41.8702 0.0612666L40.1871 14.4089L39.8426 16.1791C39.8851 16.1791 39.937 16.1874 39.9794 16.1874C41.79 16.16 43.0783 14.4819 43.3198 12.3665L44.2896 4.1346C44.5837 1.62022 43.1672 0.0596101 41.8702 0.0596101V0.0612666Z" fill="#333333"/>
</svg>
