<svg width="187" height="34" viewBox="0 0 187 34" fill="none" xmlns="http://www.w3.org/2000/svg">
<g clip-path="url(#clip0_1_7)">
<path d="M64.2982 25.4177H55.9765V24.2918C56.6945 24.2918 57.2207 24.2225 57.5552 24.0838C57.8897 23.9369 58.1059 23.7289 58.2038 23.4597C58.3099 23.1823 58.3629 22.807 58.3629 22.3338V11.9316L52.0971 25.4177H51.3506L44.9992 11.9316V21.8076C44.9992 22.3297 45.0155 22.7295 45.0481 23.0069C45.0889 23.2843 45.1828 23.5208 45.3296 23.7167C45.4846 23.9125 45.7253 24.0593 46.0516 24.1572C46.378 24.247 46.8308 24.2918 47.41 24.2918V25.4177H41.2667V24.2918C41.8541 24.2918 42.3069 24.2429 42.6251 24.145C42.9514 24.0471 43.188 23.9002 43.3349 23.7044C43.4817 23.5086 43.5714 23.2761 43.6041 23.0069C43.6367 22.7295 43.653 22.3297 43.653 21.8076V12.4089C43.653 11.7073 43.6163 11.2015 43.5429 10.8914C43.4695 10.5814 43.2655 10.3489 42.931 10.1939C42.6047 10.0307 42.0499 9.94912 41.2667 9.94912V8.82324H47.3366L52.8436 20.5348L58.3629 8.82324H64.2982V9.94912C63.2784 9.94912 62.6176 10.1001 62.3157 10.4019C62.022 10.6956 61.8751 11.1974 61.8751 11.9072V22.3338C61.8751 22.7825 61.9241 23.1456 62.022 23.4229C62.1199 23.7003 62.3442 23.9165 62.6951 24.0715C63.054 24.2184 63.5884 24.2918 64.2982 24.2918V25.4177Z" fill="#333333"/>
<path d="M78.0046 20.3757C78.0046 21.4853 77.7353 22.4521 77.1969 23.2761C76.6584 24.1001 75.9282 24.7324 75.0063 25.173C74.0925 25.6054 73.089 25.8216 71.9958 25.8216C70.9678 25.8216 69.9929 25.6217 69.071 25.2219C68.1572 24.8221 67.4066 24.2143 66.8192 23.3985C66.24 22.5826 65.9503 21.5832 65.9503 20.4002C65.9503 18.6298 66.5541 17.2877 67.7615 16.374C68.969 15.4521 70.4049 14.9911 72.0692 14.9911C73.3093 14.9911 74.3781 15.2359 75.2755 15.7254C76.173 16.2149 76.8501 16.8716 77.307 17.6957C77.772 18.5197 78.0046 19.413 78.0046 20.3757ZM74.6269 20.3023C74.6269 18.9154 74.4434 17.8711 74.0762 17.1694C73.7091 16.4678 72.9952 16.117 71.9346 16.117C71.2575 16.117 70.7271 16.272 70.3437 16.582C69.9684 16.8839 69.7033 17.3571 69.5482 18.0016C69.4014 18.638 69.328 19.4661 69.328 20.4859C69.328 21.7423 69.4952 22.758 69.8297 23.5331C70.1642 24.3081 70.8944 24.6957 72.0203 24.6957C72.7627 24.6957 73.3256 24.4836 73.7091 24.0593C74.1007 23.6269 74.3495 23.0966 74.4556 22.4684C74.5698 21.832 74.6269 21.11 74.6269 20.3023Z" fill="#333333"/>
<path d="M92.127 20.3757C92.127 21.4853 91.8578 22.4521 91.3193 23.2761C90.7808 24.1001 90.0506 24.7324 89.1287 25.173C88.215 25.6054 87.2115 25.8216 86.1182 25.8216C85.0903 25.8216 84.1153 25.6217 83.1934 25.2219C82.2796 24.8221 81.5291 24.2143 80.9416 23.3985C80.3624 22.5826 80.0728 21.5832 80.0728 20.4002C80.0728 18.6298 80.6765 17.2877 81.884 16.374C83.0914 15.4521 84.5273 14.9911 86.1917 14.9911C87.4318 14.9911 88.5005 15.2359 89.398 15.7254C90.2954 16.2149 90.9726 16.8716 91.4294 17.6957C91.8945 18.5197 92.127 19.413 92.127 20.3757ZM88.7494 20.3023C88.7494 18.9154 88.5658 17.8711 88.1987 17.1694C87.8315 16.4678 87.1177 16.117 86.057 16.117C85.3799 16.117 84.8496 16.272 84.4661 16.582C84.0908 16.8839 83.8257 17.3571 83.6707 18.0016C83.5238 18.638 83.4504 19.4661 83.4504 20.4859C83.4504 21.7423 83.6176 22.758 83.9521 23.5331C84.2866 24.3081 85.0168 24.6957 86.1427 24.6957C86.8851 24.6957 87.4481 24.4836 87.8315 24.0593C88.2231 23.6269 88.472 23.0966 88.578 22.4684C88.6923 21.832 88.7494 21.11 88.7494 20.3023Z" fill="#333333"/>
<path d="M107.608 25.4177H101.269V24.2918C101.75 24.2918 102.093 24.2306 102.297 24.1083C102.509 23.9777 102.639 23.7901 102.688 23.5453C102.737 23.3006 102.762 22.8967 102.762 22.3338V18.8705C102.762 18.177 102.66 17.6304 102.456 17.2306C102.252 16.8227 101.836 16.6187 101.207 16.6187C100.351 16.6187 99.7104 16.9491 99.2861 17.61C98.87 18.2627 98.662 19.0173 98.662 19.874V22.6153C98.662 23.2598 98.7558 23.7003 98.9435 23.9369C99.1311 24.1735 99.535 24.2918 100.155 24.2918V25.4177H93.6934V24.2918C94.2237 24.2918 94.6154 24.247 94.8683 24.1572C95.1212 24.0593 95.2884 23.8921 95.37 23.6555C95.4516 23.4107 95.4924 23.0273 95.4924 22.5051V18.5523C95.4924 17.9812 95.3823 17.61 95.162 17.4387C94.9417 17.2592 94.4522 17.1694 93.6934 17.1694V16.0435L98.4539 14.9911C98.5274 15.4643 98.5641 15.9049 98.5641 16.3128C98.5641 16.4188 98.56 16.5127 98.5518 16.5942C98.5518 16.6677 98.5518 16.7533 98.5518 16.8512C99.0658 16.3046 99.6002 15.86 100.155 15.5173C100.71 15.1665 101.403 14.9911 102.235 14.9911C102.937 14.9911 103.565 15.1176 104.12 15.3705C104.683 15.6234 105.124 16.0068 105.442 16.5208C105.76 17.0348 105.919 17.6549 105.919 18.381V22.5051C105.919 23.1904 106.009 23.6595 106.188 23.9125C106.376 24.1654 106.849 24.2918 107.608 24.2918V25.4177Z" fill="#333333"/>
<path d="M130.318 25.5401H129.167C128.996 24.8385 128.715 24.2102 128.323 23.6555C127.703 24.3 126.993 24.8548 126.194 25.3198C125.394 25.7848 124.313 26.0174 122.95 26.0174C121.457 26.0174 120.071 25.6543 118.79 24.9282C117.517 24.2021 116.501 23.1904 115.742 21.8932C114.984 20.5879 114.604 19.1193 114.604 17.4876C114.604 16.3291 114.808 15.2236 115.216 14.1712C115.632 13.1187 116.22 12.1927 116.978 11.3932C117.745 10.5936 118.655 9.96544 119.707 9.50856C120.768 9.05168 121.927 8.82324 123.183 8.82324C125.255 8.82324 126.969 9.5004 128.323 10.8547C128.502 10.5039 128.678 9.99399 128.849 9.32499H129.951L130.146 15.4317H128.971C128.759 14.3955 128.376 13.4736 127.821 12.6659C127.266 11.8582 126.606 11.2422 125.839 10.818C125.08 10.3856 124.284 10.1694 123.452 10.1694C122.522 10.1694 121.686 10.4264 120.943 10.9404C120.201 11.4462 119.618 12.2213 119.193 13.2656C118.777 14.3099 118.569 15.6111 118.569 17.1694C118.569 18.6869 118.745 19.9515 119.096 20.9631C119.446 21.9666 119.879 22.7254 120.393 23.2394C120.915 23.7534 121.437 24.1042 121.959 24.2918C122.481 24.4713 122.971 24.5611 123.428 24.5611C124.431 24.5611 125.333 24.2918 126.132 23.7534C126.94 23.2149 127.601 22.5377 128.115 21.7219C128.629 20.8979 128.971 20.082 129.143 19.2743H130.318V25.5401Z" fill="#333333"/>
<path d="M144.991 20.6694C144.991 21.779 144.722 22.7458 144.183 23.5698C143.645 24.3938 142.914 25.0261 141.993 25.4667C141.079 25.8991 140.075 26.1153 138.982 26.1153C137.954 26.1153 136.979 25.9154 136.057 25.5156C135.143 25.1158 134.393 24.508 133.805 23.6922C133.226 22.8763 132.937 21.8769 132.937 20.6939C132.937 18.9235 133.54 17.5814 134.748 16.6677C135.955 15.7458 137.391 15.2848 139.055 15.2848C140.296 15.2848 141.364 15.5296 142.262 16.0191C143.159 16.5086 143.836 17.1653 144.293 17.9894C144.758 18.8134 144.991 19.7067 144.991 20.6694ZM141.613 20.596C141.613 19.2091 141.43 18.1648 141.062 17.4631C140.695 16.7615 139.981 16.4107 138.921 16.4107C138.244 16.4107 137.713 16.5657 137.33 16.8757C136.955 17.1776 136.689 17.6508 136.534 18.2953C136.388 18.9317 136.314 19.7598 136.314 20.7796C136.314 22.036 136.481 23.0517 136.816 23.8268C137.15 24.6019 137.881 24.9894 139.006 24.9894C139.749 24.9894 140.312 24.7773 140.695 24.353C141.087 23.9206 141.336 23.3903 141.442 22.7621C141.556 22.1257 141.613 21.4037 141.613 20.596Z" fill="#333333"/>
<path d="M159.615 23.1292C159.615 23.7493 159.489 24.2796 159.236 24.7202C158.983 25.1526 158.64 25.4748 158.208 25.6869C157.783 25.8909 157.302 25.9929 156.764 25.9929C156.078 25.9929 155.507 25.8338 155.05 25.5156C154.593 25.1893 154.32 24.8017 154.23 24.353C152.868 25.4463 151.497 25.9929 150.118 25.9929C149.237 25.9929 148.515 25.7808 147.952 25.3565C147.389 24.9241 147.108 24.3571 147.108 23.6555C147.108 23.0762 147.259 22.5541 147.561 22.089C147.863 21.6158 148.303 21.1957 148.882 20.8285C149.47 20.4614 150.167 20.1391 150.975 19.8617C151.783 19.5762 152.79 19.2784 153.998 18.9684V18.2708C153.998 17.6916 153.859 17.2388 153.582 16.9124C153.312 16.5779 152.811 16.4107 152.076 16.4107C151.448 16.4107 150.995 16.5412 150.718 16.8023C150.441 17.0634 150.257 17.4591 150.167 17.9894C150.102 18.3647 149.98 18.6747 149.8 18.9194C149.629 19.156 149.266 19.2743 148.711 19.2743C148.368 19.2743 148.067 19.1764 147.805 18.9806C147.544 18.7848 147.414 18.4952 147.414 18.1117C147.414 17.353 147.826 16.6922 148.65 16.1292C149.474 15.5663 150.738 15.2848 152.444 15.2848C154.238 15.2848 155.47 15.5867 156.139 16.1904C156.817 16.7941 157.155 17.6018 157.155 18.6135V22.4806C157.155 22.9701 157.167 23.3291 157.192 23.5576C157.216 23.786 157.282 23.9614 157.388 24.0838C157.502 24.198 157.677 24.2551 157.914 24.2551C158.126 24.2551 158.31 24.145 158.465 23.9247C158.628 23.7044 158.709 23.4393 158.709 23.1292H159.615ZM153.998 23.2271V20.1922C152.448 20.6817 151.461 21.163 151.036 21.6362C150.62 22.1013 150.412 22.5581 150.412 23.0069C150.412 23.3822 150.526 23.684 150.755 23.9125C150.983 24.1409 151.305 24.2551 151.722 24.2551C152.17 24.2551 152.566 24.1613 152.909 23.9736C153.251 23.786 153.614 23.5372 153.998 23.2271Z" fill="#333333"/>
<path d="M171.29 23.2271C170.303 25.1526 168.716 26.1153 166.529 26.1153C165.51 26.1153 164.543 25.9072 163.629 25.4911C162.723 25.0751 161.993 24.4713 161.438 23.6799C160.892 22.8886 160.618 21.9626 160.618 20.902C160.618 20.1677 160.765 19.4661 161.059 18.7971C161.361 18.1281 161.793 17.5243 162.356 16.9859C162.919 16.4474 163.584 16.0313 164.351 15.7376C165.126 15.4357 165.954 15.2848 166.835 15.2848C167.961 15.2848 168.952 15.5092 169.809 15.9579C170.666 16.3984 171.094 17.0103 171.094 17.7936C171.094 18.1525 170.959 18.4585 170.69 18.7114C170.421 18.9643 170.111 19.0908 169.76 19.0908C169.426 19.0908 169.169 19.0133 168.989 18.8582C168.81 18.7032 168.691 18.5441 168.634 18.381C168.577 18.2178 168.496 17.9282 168.389 17.5121C168.283 17.1123 168.108 16.8308 167.863 16.6677C167.618 16.4963 167.276 16.4107 166.835 16.4107C166.093 16.4107 165.432 16.6881 164.853 17.2429C164.282 17.7895 163.996 18.8175 163.996 20.3268C163.996 21.1345 164.11 21.8769 164.339 22.5541C164.575 23.2312 164.942 23.7697 165.44 24.1695C165.946 24.5611 166.562 24.7569 167.288 24.7569C168.096 24.7569 168.712 24.557 169.136 24.1572C169.56 23.7574 169.936 23.2883 170.262 22.7499L171.29 23.2271Z" fill="#333333"/>
<path d="M186.085 25.7114H179.795V24.5855C180.358 24.5855 180.746 24.4876 180.958 24.2918C181.17 24.0879 181.276 23.7942 181.276 23.4107V19.2988C181.276 18.8909 181.247 18.5237 181.19 18.1974C181.141 17.8711 181.003 17.5774 180.774 17.3163C180.546 17.047 180.195 16.9124 179.722 16.9124C179.338 16.9124 178.947 17.0185 178.547 17.2306C178.155 17.4346 177.853 17.7038 177.641 18.0383C177.413 18.4136 177.266 18.7767 177.201 19.1275C177.144 19.4701 177.115 19.8862 177.115 20.3757V22.4806C177.115 23.0517 177.135 23.4719 177.176 23.7411C177.225 24.0022 177.352 24.2102 177.556 24.3653C177.768 24.5121 178.114 24.5855 178.596 24.5855V25.7114H172.183V24.5855C172.73 24.5855 173.13 24.5284 173.382 24.4142C173.644 24.3 173.803 24.1327 173.86 23.9125C173.925 23.684 173.958 23.3128 173.958 22.7988V12.5313C173.958 11.9194 173.86 11.5115 173.664 11.3075C173.468 11.0954 172.975 10.9853 172.183 10.9771V9.87569L177.115 8.82324V17.0838C177.596 16.5779 178.094 16.1537 178.608 15.811C179.13 15.4602 179.852 15.2848 180.774 15.2848C181.198 15.2848 181.623 15.346 182.047 15.4684C182.471 15.5908 182.85 15.7702 183.185 16.0068C183.528 16.2434 183.776 16.5127 183.931 16.8145C184.266 17.4101 184.433 18.1852 184.433 19.1397V22.7988C184.433 23.4841 184.519 23.9533 184.69 24.2062C184.87 24.4591 185.335 24.5855 186.085 24.5855V25.7114Z" fill="#333333"/>
<path d="M26.9181 16.4698C21.4912 15.2846 17.2807 10.9805 16.3138 5.49123C16.0019 3.80702 15.6277 2.24756 15.1287 1C14.6296 2.24756 14.2554 3.83821 13.9435 5.52242C12.9454 10.9805 8.7037 15.3158 3.2768 16.501C1.93567 16.7817 1 17 1 17C1.93567 17.3743 2.93372 17.6862 3.96296 17.9357C9.14035 19.2456 13.0078 23.5497 14.0058 28.7895C14.2866 30.3489 14.6608 31.8148 15.1287 33C15.5965 31.846 15.9708 30.3801 16.2515 28.7895C17.2495 23.5497 21.117 19.2456 26.2943 17.9357C27.3236 17.6862 28.3216 17.3743 29.2573 17C29.2261 16.9688 28.2904 16.7505 26.9181 16.4698Z" fill="#333333" stroke="#333333" stroke-width="0.930185" stroke-miterlimit="10" stroke-linecap="round" stroke-linejoin="round"/>
</g>
<defs>
<clipPath id="clip0_1_7">
<rect width="187" height="34" fill="white"/>
</clipPath>
</defs>
</svg>
