<svg width="40" height="40" viewBox="0 0 40 40" fill="none" xmlns="http://www.w3.org/2000/svg">
<g clip-path="url(#clip0_1_309)">
<path d="M21.0675 29V20.7893H23.8234L24.2361 17.5895H21.0675V15.5466C21.0675 14.6202 21.3247 13.9888 22.6532 13.9888L24.3476 13.9881V11.1261C24.0546 11.0871 23.0487 11 21.8785 11C19.4356 11 17.763 12.4912 17.763 15.2297V17.5895H15V20.7893H17.763V29H21.0675Z" fill="black"/>
<path d="M20 39.5C30.7696 39.5 39.5 30.7696 39.5 20C39.5 9.23045 30.7696 0.5 20 0.5C9.23045 0.5 0.5 9.23045 0.5 20C0.5 30.7696 9.23045 39.5 20 39.5Z" stroke="black"/>
</g>
<defs>
<clipPath id="clip0_1_309">
<rect width="40" height="40" fill="white"/>
</clipPath>
</defs>
</svg>
