<svg width="40" height="40" viewBox="0 0 40 40" fill="none" xmlns="http://www.w3.org/2000/svg">
<g clip-path="url(#clip0_1_304)">
<path fill-rule="evenodd" clip-rule="evenodd" d="M24 12H16C13.8002 12 12 13.7994 12 16V24C12 26.1998 13.8002 28 16 28H24C26.1998 28 28 26.1998 28 24V16C28 13.7994 26.1998 12 24 12ZM20 23.3335C18.1588 23.3335 16.6666 21.8407 16.6666 20.0003C16.6666 18.1591 18.1588 16.6669 20 16.6669C21.8404 16.6669 23.3334 18.1591 23.3334 20.0003C23.3334 21.8407 21.8404 23.3335 20 23.3335ZM23.3334 15.6669C23.3334 16.2191 23.7806 16.6669 24.3334 16.6669C24.8862 16.6669 25.3334 16.2191 25.3334 15.6669C25.3334 15.1147 24.8862 14.6669 24.3334 14.6669C23.7806 14.6669 23.3334 15.1147 23.3334 15.6669Z" fill="black"/>
<path d="M20 39.5C30.7696 39.5 39.5 30.7696 39.5 20C39.5 9.23045 30.7696 0.5 20 0.5C9.23045 0.5 0.5 9.23045 0.5 20C0.5 30.7696 9.23045 39.5 20 39.5Z" stroke="black"/>
</g>
<defs>
<clipPath id="clip0_1_304">
<rect width="40" height="40" fill="white"/>
</clipPath>
</defs>
</svg>
