<svg width="40" height="40" viewBox="0 0 40 40" fill="none" xmlns="http://www.w3.org/2000/svg">
<g clip-path="url(#clip0_1_314)">
<path d="M20 39.5C30.7696 39.5 39.5 30.7696 39.5 20C39.5 9.23045 30.7696 0.5 20 0.5C9.23045 0.5 0.5 9.23045 0.5 20C0.5 30.7696 9.23045 39.5 20 39.5Z" stroke="black"/>
<path d="M29.1423 13.8468C29.0249 13.7213 28.8379 13.6901 28.6863 13.7708C28.5023 13.855 28.3116 13.9237 28.1163 13.976C28.406 13.6148 28.6252 13.2023 28.7623 12.76C28.7997 12.6067 28.7385 12.4462 28.6086 12.3568C28.4786 12.2673 28.3069 12.2675 28.1771 12.3572C27.5714 12.6922 26.9252 12.9476 26.2543 13.1172C25.5336 12.4001 24.5577 11.9983 23.5411 12C22.7299 12.0178 21.94 12.2627 21.2611 12.7068C19.8171 13.52 19.5663 15.3972 19.6727 16.56C16.9956 16.3342 14.526 15.0281 12.8327 12.9424C12.7634 12.8359 12.6479 12.7682 12.5211 12.76C12.3943 12.7686 12.2803 12.8398 12.2171 12.95C11.4341 14.3058 11.4992 15.9906 12.3843 17.282C12.2703 17.206 12.1487 17.1148 12.0271 17.016C11.9137 16.9036 11.7422 16.8741 11.5977 16.942C11.4533 17.01 11.3667 17.161 11.3811 17.32C11.4041 18.7343 12.1126 20.0493 13.2811 20.8464L12.9847 20.7628C12.8437 20.7189 12.6901 20.7607 12.5908 20.8698C12.4914 20.979 12.4642 21.1358 12.5211 21.272C13.1175 22.6192 14.2859 23.6287 15.7055 24.0232C14.4113 24.7708 12.9121 25.0851 11.4267 24.92C11.2471 24.8978 11.0768 25.0053 11.0195 25.177C10.9623 25.3486 11.0341 25.5368 11.1911 25.6268C12.9781 26.6692 15.0123 27.2125 17.0811 27.2C20.0029 27.1761 22.7726 25.8937 24.6811 23.6812C26.5823 21.6436 27.5821 18.9259 27.4551 16.142C28.1323 15.6245 28.7158 14.9947 29.1803 14.28C29.2596 14.1419 29.2445 13.969 29.1423 13.8468Z" fill="black"/>
</g>
<defs>
<clipPath id="clip0_1_314">
<rect width="40" height="40" fill="white"/>
</clipPath>
</defs>
</svg>
